<svg width="145" height="226" viewBox="0 0 145 226" fill="none" xmlns="http://www.w3.org/2000/svg">
<path d="M0.517367 6.62239C-0.578987 10.9025 2.00194 15.261 6.28204 16.3573C10.5621 17.4537 14.9206 14.8727 16.017 10.5926C17.1133 6.31255 14.5324 1.95407 10.2523 0.85772C5.97219 -0.238634 1.61372 2.3423 0.517367 6.62239ZM42.7626 125.65L41.6655 126.673L41.6959 126.705L41.7282 126.736L42.7626 125.65ZM133.899 68.5062L135.071 67.5699L133.899 68.5062ZM42.2673 225.951L59.4573 223.829L49.0248 210.003L42.2673 225.951ZM8.17289 10.1045C23.3707 11.0616 48.1485 19.7081 68.9507 33.7641C89.802 47.8535 106.127 67.0044 105.414 88.7591L108.412 88.8573C109.178 65.4922 91.7078 45.5205 70.6303 31.2784C49.5035 17.003 24.219 8.10905 8.36143 7.11048L8.17289 10.1045ZM105.414 88.7591C103.973 132.728 62.6237 142.493 43.7971 124.563L41.7282 126.736C62.637 146.648 106.896 135.128 108.412 88.8573L105.414 88.7591ZM43.8598 124.627C35.565 115.729 34.6966 105.326 38.656 95.1959C42.6483 84.9811 51.5633 75.073 62.754 67.6195C73.9349 60.1725 87.2302 55.2821 99.8304 54.9452C112.391 54.6093 124.215 58.7879 132.727 69.4424L135.071 67.5699C125.866 56.0483 113.067 51.5902 99.7502 51.9462C86.4734 52.3012 72.6386 57.4314 61.0909 65.1226C49.553 72.8074 40.1409 83.1554 35.8618 94.1038C31.5497 105.137 32.4658 116.804 41.6655 126.673L43.8598 124.627ZM132.727 69.4424C145.076 84.8993 143.553 107.218 129.401 133.179C115.278 159.088 88.7745 188.184 52.1198 216.638L53.9595 219.008C90.7989 190.41 117.643 161.016 132.035 134.615C146.399 108.265 148.558 84.4512 135.071 67.5699L132.727 69.4424Z" fill="#7548F2"/>
</svg>
